<svg viewBox="0 0 120 120" fill="none" xmlns="http://www.w3.org/2000/svg">
<circle cx="60" cy="60" r="48" fill="#339AF0"/>
<path d="M61.0312 40.3125C66.8229 40.3125 71.1562 41.5729 74.0312 44.0938C76.9271 46.6146 78.375 50.1979 78.375 54.8438C78.375 56.9271 78.0729 58.9271 77.4688 60.8438C76.8854 62.7604 75.9167 64.4688 74.5625 65.9688C73.2292 67.4688 71.4479 68.6562 69.2188 69.5312C67.0104 70.4062 64.2812 70.8438 61.0312 70.8438H57.5625V86H45.2188V40.3125H61.0312ZM60.75 50.2812H57.5625V60.7812H60C61.0625 60.7812 62.0521 60.6042 62.9688 60.25C63.8854 59.875 64.6146 59.2812 65.1562 58.4688C65.7188 57.6354 66 56.5312 66 55.1562C66 53.7188 65.5729 52.5521 64.7188 51.6562C63.8646 50.7396 62.5417 50.2812 60.75 50.2812Z" fill="white"/>
</svg>
