<svg viewBox="0 0 40 40" fill="none" xmlns="http://www.w3.org/2000/svg">
<path d="M38 28.8697C38 28.8697 32.5166 28.0573 29.6191 27.8243C26.8365 27.6008 23.5391 27.4717 20.0016 27.4717C16.4641 27.4717 13.1667 27.6008 10.3849 27.8243C7.48654 28.0605 2.00397 29.1877 2.00397 29.1877V30.6046C2.00397 31.864 10.0621 32.8873 20.0016 32.8873C29.9411 32.8873 37.9992 31.864 37.9992 30.6046L38 28.8697Z" fill="#F0D50C"/>
<path d="M14.4679 10.0762C7.89577 12.4179 3.50703 18.6403 3.50665 25.6171V27.9534C5.85191 27.3931 8.2431 27.0464 10.6509 26.9175C10.6346 26.4694 10.6262 26.0178 10.6257 25.5628C10.6281 19.4324 12.1079 13.916 14.4679 10.0762Z" fill="#F0D50C"/>
<path d="M36.4958 25.6171C36.5014 21.7889 35.1697 18.079 32.7308 15.1282C33.7881 18.5052 34.3149 22.0258 34.2925 25.5644C34.2925 26.2083 34.276 26.8448 34.2429 27.474C34.9935 27.5896 35.7369 27.7472 36.4698 27.9463L36.4958 25.6171Z" fill="#FFF04D"/>
<path d="M36.4958 25.6171C36.5014 21.7889 35.1697 18.079 32.7308 15.1282C33.7881 18.5052 34.3149 22.0258 34.2925 25.5644C34.2925 26.2083 34.276 26.8448 34.2429 27.474C34.9935 27.5896 35.7369 27.7472 36.4698 27.9463L36.4958 25.6171Z" fill="#FFEA00"/>
<path d="M32.7308 15.1274C28.3116 9.77051 21.0125 7.75164 14.4687 10.0762C12.1072 13.916 10.6281 19.4324 10.6281 25.5636C10.6281 26.0186 10.6365 26.4702 10.6533 26.9183C13.1092 26.7286 15.9525 26.6113 18.9972 26.5901C18.9972 26.5901 19.6891 26.5901 20.0032 26.5901C24.7657 26.5329 29.5259 26.8294 34.2445 27.4772C34.2765 26.8475 34.293 26.2109 34.2941 25.5675C34.3164 22.0276 33.789 18.5056 32.7308 15.1274Z" fill="#FFF04D"/>
<path d="M26.6365 16.2184L25.5912 9.68502C25.5169 9.20433 25.1725 8.80937 24.7064 8.67037C21.6606 7.77654 18.4221 7.77654 15.3762 8.67037C14.9104 8.80963 14.5664 9.20454 14.4922 9.68502L13.4461 16.2184" fill="#FFF04D"/>
<path d="M20.0032 26.4515C19.6883 26.4515 19.3758 26.4515 19.0657 26.4515H19.031H18.9964C9.5245 26.5176 2.00476 27.5126 2.00476 28.7303V30.4952C1.98941 30.5986 2.01146 30.7041 2.06694 30.7927C2.548 30.4314 3.10095 30.1775 3.68849 30.0481C5.18485 29.684 6.70573 29.4293 8.23906 29.2861C9.1099 29.1906 9.97973 29.4745 10.6265 30.0654C11.8108 31.1495 13.3582 31.7508 14.9638 31.7507H25.0394C26.645 31.7507 28.1924 31.1495 29.3767 30.0654C30.0234 29.4738 30.8937 29.1895 31.7649 29.2853C33.298 29.4285 34.8186 29.6832 36.3147 30.0473C36.8711 30.1543 37.3966 30.3842 37.8528 30.7203C37.8788 30.7463 37.9087 30.7691 37.9315 30.7927C37.9874 30.7037 38.0097 30.5976 37.9945 30.4936V28.7288C38 27.4733 29.9418 26.4515 20.0032 26.4515Z" fill="#FFF04D"/>
<path d="M23.7941 21.2106L19.9984 23.5469V26.5814L23.7941 21.2106Z" fill="#6E6F70"/>
<path d="M20.0024 26.5814V23.5469L16.2067 21.2106L20.0024 26.5814Z" fill="#0A0A0A"/>
<path d="M16.2067 19.8244L20.0024 22.019V13.6854L16.2067 19.8244Z" fill="#0A0A0A"/>
<path d="M23.7941 19.8244L19.9984 13.6846V17.629V22.0182L23.7941 19.8236V19.8244Z" fill="#6E6F70"/>
</svg>
