<svg width="100%" height="auto" viewBox="0 0 32 32" fill="none" xmlns="http://www.w3.org/2000/svg">
<path fill-rule="evenodd" clip-rule="evenodd" d="M17.6753 8.74696C16.6309 8.17745 15.3687 8.17745 14.3242 8.74696L8.73094 11.7968C7.60629 12.4101 6.90649 13.5887 6.90649 14.8697V20.6303C6.90649 21.9113 7.60629 23.0899 8.73093 23.7031L14.3242 26.753C15.3687 27.3225 16.6309 27.3225 17.6753 26.753L23.2686 23.7031C24.3932 23.0899 25.093 21.9113 25.093 20.6303V14.8697C25.093 13.5887 24.3932 12.4101 23.2686 11.7968L17.6753 8.74696ZM16 14.25C15.6686 14.25 15.4469 14.6476 15.0036 15.4429L14.8889 15.6487C14.7629 15.8747 14.6999 15.9877 14.6017 16.0622C14.5035 16.1368 14.3812 16.1645 14.1366 16.2198L13.9138 16.2702C13.053 16.465 12.6225 16.5624 12.5201 16.8917C12.4177 17.221 12.7111 17.5642 13.298 18.2505L13.4499 18.428C13.6166 18.6231 13.7 18.7206 13.7376 18.8412C13.7751 18.9618 13.7625 19.0919 13.7372 19.3521L13.7143 19.589C13.6256 20.5047 13.5812 20.9625 13.8493 21.1661C14.1174 21.3696 14.5204 21.184 15.3265 20.8129L15.535 20.7169C15.7641 20.6114 15.8786 20.5587 16 20.5587C16.1214 20.5587 16.2359 20.6114 16.465 20.7169L16.6735 20.8129C17.4796 21.184 17.8826 21.3696 18.1507 21.1661C18.4188 20.9625 18.3744 20.5047 18.2857 19.589L18.2628 19.3521C18.2375 19.092 18.2249 18.9618 18.2624 18.8412C18.3 18.7206 18.3833 18.6231 18.5501 18.428L18.702 18.2505C19.2889 17.5642 19.5823 17.221 19.4799 16.8917C19.3775 16.5624 18.9471 16.465 18.0862 16.2702L17.8634 16.2198C17.6188 16.1645 17.4965 16.1368 17.3983 16.0622C17.3001 15.9877 17.2371 15.8747 17.1111 15.6487L16.9964 15.4429C16.5531 14.6476 16.3314 14.25 16 14.25Z" fill="currentColor"/>
<path d="M14.8334 4.33333H17.1667C19.3666 4.33333 20.4665 4.33333 21.1499 5.01675C21.8334 5.70016 21.8334 6.80011 21.8334 9V9.02096L18.5131 7.21052C16.9464 6.35625 15.0531 6.35625 13.4864 7.21052L10.1667 9.0207V9C10.1667 6.80011 10.1667 5.70016 10.8501 5.01675C11.5335 4.33333 12.6335 4.33333 14.8334 4.33333Z" fill="currentColor"/>
</svg>
