<svg width="100%" height="auto" viewBox="0 0 32 32" fill="none" xmlns="http://www.w3.org/2000/svg">
<path d="M13.7602 11.2133C15.0163 8.95999 15.6444 7.83333 16.5834 7.83333C17.5223 7.83333 18.1504 8.95999 19.4065 11.2133L19.7314 11.7963C20.0884 12.4366 20.2668 12.7567 20.5451 12.968C20.8234 13.1792 21.17 13.2576 21.8631 13.4145L22.4941 13.5573C24.9333 14.1091 26.1529 14.3851 26.4431 15.3182C26.7332 16.2512 25.9018 17.2235 24.2389 19.168L23.8087 19.6711C23.3362 20.2236 23.0999 20.4999 22.9936 20.8417C22.8873 21.1835 22.9231 21.5522 22.9945 22.2894L23.0595 22.9606C23.3109 25.555 23.4366 26.8522 22.677 27.4289C21.9174 28.0055 20.7755 27.4798 18.4916 26.4282L17.9008 26.1562C17.2518 25.8574 16.9273 25.708 16.5834 25.708C16.2394 25.708 15.9149 25.8574 15.2659 26.1562L14.6751 26.4282C12.3913 27.4798 11.2494 28.0055 10.4897 27.4289C9.73007 26.8522 9.85577 25.555 10.1072 22.9606L10.1722 22.2894C10.2437 21.5522 10.2794 21.1835 10.1731 20.8417C10.0668 20.4999 9.83053 20.2236 9.35799 19.6711L8.92778 19.168C7.26491 17.2235 6.43347 16.2512 6.72363 15.3182C7.01379 14.3851 8.23338 14.1091 10.6726 13.5573L11.3036 13.4145C11.9967 13.2576 12.3433 13.1792 12.6216 12.968C12.8999 12.7567 13.0783 12.4366 13.4353 11.7963L13.7602 11.2133Z" fill="currentColor"/>
<path d="M7.67855 4.91712C7.71354 4.79371 7.9326 4.79297 7.96842 4.91614C8.13199 5.4786 8.43529 6.30999 8.89394 6.76555C9.35259 7.22111 10.186 7.51878 10.7496 7.67855C10.873 7.71354 10.8737 7.9326 10.7505 7.96842C10.1881 8.13199 9.35669 8.43529 8.90113 8.89394C8.44557 9.35259 8.14789 10.186 7.98813 10.7496C7.95314 10.873 7.73408 10.8737 7.69826 10.7505C7.53469 10.1881 7.23138 9.35669 6.77274 8.90113C6.31409 8.44557 5.48067 8.14789 4.91712 7.98812C4.79371 7.95314 4.79297 7.73408 4.91614 7.69826C5.4786 7.53469 6.30999 7.23138 6.76555 6.77274C7.22111 6.31409 7.51878 5.48067 7.67855 4.91712Z" fill="currentColor"/>
<path fill-rule="evenodd" clip-rule="evenodd" d="M24.1667 5.79167C24.6499 5.79167 25.0417 6.18342 25.0417 6.66667V6.95834H25.3333C25.8166 6.95834 26.2083 7.35009 26.2083 7.83334C26.2083 8.31659 25.8166 8.70834 25.3333 8.70834H25.0417V9C25.0417 9.48325 24.6499 9.875 24.1667 9.875C23.6834 9.875 23.2917 9.48325 23.2917 9V8.70834H23C22.5168 8.70834 22.125 8.31659 22.125 7.83334C22.125 7.35009 22.5168 6.95834 23 6.95834H23.2917V6.66667C23.2917 6.18342 23.6834 5.79167 24.1667 5.79167Z" fill="currentColor"/>
</svg>
