<svg width="100%" height="100%" viewBox="0 0 32 32" fill="none" xmlns="http://www.w3.org/2000/svg">
<path fill-rule="evenodd" clip-rule="evenodd" d="M16 27.6667C21.1547 27.6667 25.3334 23.488 25.3334 18.3333C25.3334 13.1787 21.1547 9 16 9C10.8454 9 6.66669 13.1787 6.66669 18.3333C6.66669 23.488 10.8454 27.6667 16 27.6667ZM16 14.8333C15.6686 14.8333 15.447 15.231 15.0036 16.0263L14.8889 16.232C14.763 16.458 14.7 16.571 14.6018 16.6456C14.5035 16.7201 14.3812 16.7478 14.1366 16.8032L13.9139 16.8535C13.053 17.0483 12.6225 17.1457 12.5201 17.475C12.4177 17.8044 12.7112 18.1475 13.2981 18.8338L13.4499 19.0114C13.6167 19.2064 13.7001 19.3039 13.7376 19.4245C13.7751 19.5452 13.7625 19.6753 13.7373 19.9355L13.7143 20.1724C13.6256 21.088 13.5812 21.5459 13.8493 21.7494C14.1174 21.9529 14.5205 21.7674 15.3265 21.3962L15.535 21.3002C15.7641 21.1948 15.8786 21.142 16 21.142C16.1214 21.142 16.2359 21.1948 16.465 21.3002L16.6735 21.3962C17.4796 21.7674 17.8826 21.9529 18.1507 21.7494C18.4188 21.5459 18.3745 21.088 18.2857 20.1724L18.2628 19.9355C18.2376 19.6753 18.225 19.5452 18.2625 19.4245C18.3 19.3039 18.3834 19.2064 18.5501 19.0114L18.702 18.8338C19.2889 18.1475 19.5823 17.8044 19.4799 17.475C19.3775 17.1457 18.9471 17.0483 18.0862 16.8535L17.8635 16.8032C17.6188 16.7478 17.4965 16.7201 17.3983 16.6456C17.3001 16.571 17.2371 16.458 17.1111 16.232L16.9964 16.0263C16.5531 15.231 16.3314 14.8333 16 14.8333Z" fill="currentColor"/>
<path d="M14.8334 4.33333H17.1667C19.3666 4.33333 20.4665 4.33333 21.1499 5.01675C21.8237 5.69052 21.8332 6.76914 21.8334 8.9075C20.139 7.85669 18.1404 7.24999 16 7.24999C13.8597 7.24999 11.861 7.85669 10.1667 8.9075C10.1668 6.76914 10.1763 5.69052 10.8501 5.01675C11.5335 4.33333 12.6335 4.33333 14.8334 4.33333Z" fill="currentColor"/>
</svg>
