<svg viewBox="0 0 32 32" fill="none" xmlns="http://www.w3.org/2000/svg">
<path d="M13.1736 10.46C14.4297 8.20666 15.0577 7.08 15.9967 7.08C16.9357 7.08 17.5637 8.20666 18.8198 10.46L19.1448 11.0429C19.5017 11.6833 19.6802 12.0034 19.9584 12.2147C20.2367 12.4259 20.5833 12.5043 21.2764 12.6611L21.9075 12.8039C24.3467 13.3558 25.5663 13.6318 25.8564 14.5648C26.1466 15.4979 25.3151 16.4702 23.6523 18.4147L23.222 18.9177C22.7495 19.4703 22.5132 19.7466 22.407 20.0884C22.3007 20.4302 22.3364 20.7988 22.4078 21.5361L22.4729 22.2073C22.7243 24.8017 22.85 26.0989 22.0903 26.6755C21.3307 27.2522 20.1888 26.7265 17.905 25.6749L17.3141 25.4029C16.6651 25.104 16.3406 24.9546 15.9967 24.9546C15.6527 24.9546 15.3282 25.1041 14.6792 25.4029L14.0884 25.6749C11.8046 26.7264 10.6627 27.2522 9.90304 26.6755C9.1434 26.0989 9.2691 24.8017 9.5205 22.2073L9.58554 21.5361C9.65698 20.7988 9.69271 20.4302 9.58641 20.0884C9.48012 19.7466 9.24386 19.4703 8.77132 18.9177L8.34111 18.4147C6.67824 16.4702 5.8468 15.4979 6.13696 14.5648C6.42712 13.6318 7.64671 13.3558 10.0859 12.8039L10.7169 12.6612C11.4101 12.5043 11.7566 12.4259 12.0349 12.2147C12.3132 12.0034 12.4917 11.6833 12.8486 11.0429L13.1736 10.46Z" fill="currentColor"/>
</svg>
