<svg width="100%" height="100%" viewBox="0 0 32 32" fill="none" xmlns="http://www.w3.org/2000/svg">
<path fill-rule="evenodd" clip-rule="evenodd" d="M27.4779 14.9807L27.2105 17.8218C26.7699 22.5032 26.5496 24.8439 25.1699 26.2553C23.7901 27.6667 21.7223 27.6667 17.5866 27.6667H14.4134C10.2777 27.6667 8.20981 27.6667 6.83009 26.2553C5.45037 24.8439 5.23007 22.5032 4.78948 17.8218L4.52209 14.9807C4.31208 12.7493 4.20708 11.6336 4.5888 11.1724C4.79529 10.9229 5.07608 10.7701 5.3763 10.7437C5.93128 10.695 6.62824 11.4884 8.02216 13.0752C8.74304 13.8959 9.10348 14.3062 9.50558 14.3698C9.72838 14.405 9.95539 14.3688 10.1611 14.2653C10.5324 14.0784 10.78 13.5711 11.2751 12.5566L13.8847 7.209C14.8203 5.29188 15.2881 4.33333 16 4.33333C16.7119 4.33333 17.1797 5.29188 18.1152 7.20899L20.7249 12.5566C21.22 13.5711 21.4675 14.0784 21.8388 14.2653C22.0446 14.3688 22.2716 14.405 22.4944 14.3698C22.8965 14.3062 23.2569 13.8959 23.9778 13.0752C25.3717 11.4884 26.0687 10.695 26.6237 10.7437C26.9239 10.7701 27.2047 10.9229 27.4112 11.1724C27.7929 11.6336 27.6879 12.7493 27.4779 14.9807ZM17.1111 16.8155L16.9964 16.6098C16.553 15.8145 16.3314 15.4168 16 15.4168C15.6686 15.4168 15.4469 15.8145 15.0036 16.6098L14.8889 16.8155C14.7629 17.0415 14.6999 17.1545 14.6017 17.2291C14.5035 17.3036 14.3812 17.3313 14.1365 17.3867L13.9138 17.4371C13.0529 17.6318 12.6225 17.7292 12.5201 18.0586C12.4177 18.3879 12.7111 18.731 13.298 19.4173L13.4499 19.5949C13.6166 19.7899 13.7 19.8874 13.7375 20.008C13.775 20.1287 13.7624 20.2588 13.7372 20.519L13.7143 20.7559C13.6255 21.6716 13.5812 22.1294 13.8493 22.3329C14.1174 22.5365 14.5204 22.3509 15.3265 21.9798L15.535 21.8837C15.7641 21.7783 15.8786 21.7255 16 21.7255C16.1214 21.7255 16.2359 21.7783 16.465 21.8837L16.6735 21.9798C17.4795 22.3509 17.8826 22.5365 18.1507 22.3329C18.4188 22.1294 18.3744 21.6716 18.2857 20.7559L18.2627 20.519C18.2375 20.2588 18.2249 20.1287 18.2624 20.008C18.2999 19.8874 18.3833 19.7899 18.5501 19.5949L18.7019 19.4173C19.2888 18.731 19.5823 18.3879 19.4799 18.0586C19.3775 17.7292 18.947 17.6318 18.0861 17.4371L17.8634 17.3867C17.6188 17.3313 17.4965 17.3036 17.3982 17.2291C17.3 17.1545 17.237 17.0415 17.1111 16.8155Z" fill="currentColor"/>
</svg>
