<svg viewBox="0 0 240 240" fill="none" xmlns="http://www.w3.org/2000/svg">
<path fill-rule="evenodd" clip-rule="evenodd" d="M77.606 101.182L65.5593 112.885C55.8538 122.313 51.5727 136.009 54.1807 149.286L60.8233 183.103L84.997 151.878C85.4487 151.295 85.9587 150.769 86.5156 150.307L84.9839 145.664C84.195 142.972 83.1458 139.112 82.0828 134.377C80.1399 125.722 78.1297 114.051 77.606 101.182ZM153.526 150.342C154.066 150.796 154.562 151.31 155.002 151.878L179.176 183.103L185.818 149.286C188.426 136.009 184.145 122.313 174.44 112.885L162.393 101.182C161.869 114.051 159.859 125.722 157.916 134.377C156.853 139.112 155.804 142.972 155.015 145.664C154.554 147.236 154.05 148.792 153.526 150.342Z" fill="#F15525"/>
<path fill-rule="evenodd" clip-rule="evenodd" d="M118 154H99.9996C97.9996 166 95.9996 180 120 220C144 180 142 166 140 154H122V164C122 165.105 121.104 166 120 166C118.895 166 118 165.105 118 164V154Z" fill="#F15525"/>
<path fill-rule="evenodd" clip-rule="evenodd" d="M120 20C180 56 148 148 148 148H122V125.75C122 124.784 121.104 124 120 124C118.895 124 118 124.784 118 125.75V148H91.9996C91.9996 148 59.9996 56 120 20ZM120 84C125.522 84 130 79.5228 130 74C130 68.4772 125.522 64 120 64C114.477 64 110 68.4772 110 74C110 79.5228 114.477 84 120 84Z" fill="#F15525"/>
</svg>
