<svg viewBox="0 0 240 240" fill="none" xmlns="http://www.w3.org/2000/svg">
<path fill-rule="evenodd" clip-rule="evenodd" d="M152 122C152 124.39 151.93 126.76 151.792 129.106C168.733 139.71 180 158.539 180 180C180 186.528 178.958 192.812 177.03 198.696C172.693 182.757 159.205 170.589 142.558 168.184L142.493 168.126C136.954 180.596 129.238 191.3 120 199.403C110.762 191.3 103.046 180.596 97.5066 168.126L97.4418 168.184C80.7951 170.589 67.307 182.757 62.97 198.696C61.0425 192.812 60 186.528 60 180C60 158.539 71.2669 139.71 88.2082 129.106C88.0702 126.76 88 124.39 88 122C88 89.8984 100.668 61.5553 120 44.5968C139.332 61.5553 152 89.8984 152 122ZM120 120C125.523 120 130 115.523 130 110C130 104.477 125.523 100 120 100C114.477 100 110 104.477 110 110C110 115.523 114.477 120 120 120Z" fill="#F15525"/>
</svg>
