<svg viewBox="0 0 120 120" fill="none" xmlns="http://www.w3.org/2000/svg">
<path fill-rule="evenodd" clip-rule="evenodd" d="M72.973 61.6216L46.2162 88.3784C42.186 92.4085 35.6518 92.4085 31.6216 88.3784C27.5915 84.3482 27.5915 77.814 31.6216 73.7838L19.4595 61.6216C8.71232 72.3688 8.71232 89.7934 19.4595 100.541C30.2066 111.288 47.6312 111.288 58.3784 100.541L85.1351 73.7838L72.973 61.6216ZM88.3784 46.2162L100.541 58.3784C111.288 47.6312 111.288 30.2066 100.541 19.4595C89.7934 8.71229 72.3688 8.7123 61.6216 19.4595L34.8649 46.2162L47.027 58.3784L73.7838 31.6216C77.814 27.5914 84.3482 27.5914 88.3784 31.6216C92.4086 35.6518 92.4086 42.186 88.3784 46.2162Z" fill="#F15525"/>
<path fill-rule="evenodd" clip-rule="evenodd" d="M58.3784 72.9729L31.6216 46.2162C27.5914 42.186 27.5914 35.6518 31.6216 31.6216C35.6518 27.5914 42.186 27.5914 46.2162 31.6216L58.3784 19.4594C47.6312 8.71228 30.2066 8.71227 19.4595 19.4594C8.7123 30.2066 8.71229 47.6312 19.4595 58.3783L46.2162 85.1351L58.3784 72.9729ZM73.7838 88.3783L61.6216 100.541C72.3688 111.288 89.7934 111.288 100.541 100.541C111.288 89.7933 111.288 72.3688 100.541 61.6216L73.7838 34.8648L61.6216 47.027L88.3784 73.7838C92.4085 77.8139 92.4085 84.3482 88.3784 88.3783C84.3482 92.4085 77.8139 92.4085 73.7838 88.3783Z" fill="#F15525"/>
</svg>
