<svg viewBox="0 0 40 40" fill="none" xmlns="http://www.w3.org/2000/svg">
<path d="M20 40C31.0834 40 40 31.0834 40 20C40 8.9166 31.0834 0 20 0C8.9166 0 0 8.9166 0 20C0 31.0834 8.9166 40 20 40Z" fill="white"/>
<path fill-rule="evenodd" clip-rule="evenodd" d="M20 40C31.0457 40 40 31.0457 40 20C40 8.95431 31.0457 0 20 0C8.95431 0 0 8.95431 0 20C0 31.0457 8.95431 40 20 40ZM20 12.5C19.2899 12.5 18.8149 13.3521 17.8649 15.0563L17.6191 15.4972C17.3491 15.9815 17.2142 16.2236 17.0037 16.3834C16.7933 16.5431 16.5311 16.6024 16.0069 16.721L15.5297 16.829C13.6849 17.2464 12.7625 17.4551 12.5431 18.1608C12.3236 18.8665 12.9524 19.6018 14.2101 21.0724L14.5354 21.4529C14.8928 21.8708 15.0715 22.0798 15.1519 22.3383C15.2323 22.5968 15.2053 22.8756 15.1512 23.4332L15.102 23.9408C14.9119 25.903 14.8168 26.884 15.3914 27.3202C15.9659 27.7563 16.8295 27.3587 18.5568 26.5634L19.0036 26.3576C19.4944 26.1316 19.7399 26.0186 20 26.0186C20.2601 26.0186 20.5056 26.1316 20.9964 26.3576L21.4432 26.5634C23.1705 27.3587 24.0341 27.7563 24.6086 27.3202C25.1832 26.884 25.0881 25.9029 24.898 23.9408L24.8488 23.4332C24.7947 22.8756 24.7677 22.5968 24.8481 22.3383C24.9285 22.0798 25.1072 21.8708 25.4645 21.4529L25.7899 21.0724C27.0476 19.6018 27.6764 18.8665 27.4569 18.1608C27.2375 17.4551 26.3151 17.2464 24.4703 16.829L23.9931 16.721C23.4689 16.6024 23.2068 16.5431 22.9963 16.3834C22.7858 16.2236 22.6509 15.9815 22.3809 15.4972L22.1351 15.0563C21.1851 13.3521 20.7101 12.5 20 12.5Z" fill="#FFA41B"/>
</svg>
