<svg viewBox="0 0 18 14" fill="none" xmlns="http://www.w3.org/2000/svg">
<path fill-rule="evenodd" clip-rule="evenodd" d="M0 0H18V14H0V0Z" fill="#F7FCFF"/>
<path fill-rule="evenodd" clip-rule="evenodd" d="M0 8.55575V9.72242H18V8.55575H0ZM0 10.6943V11.8609H18V10.6943H0ZM0 4.27758V5.44425H18V4.27758H0ZM0 12.8333V14H18V12.8333H0ZM0 6.41667V7.58333H18V6.41667H0ZM0 0V1.16667H18V0H0ZM0 2.13908V3.30575H18V2.13908H0Z" fill="#E31D1C"/>
<path d="M0 0H11.25V7.58333H0V0Z" fill="#2E42A5"/>
<path fill-rule="evenodd" clip-rule="evenodd" d="M0.968824 1.71439L0.560449 2.01131L0.698262 1.48281L0.335449 1.14798H0.809637L0.968262 0.716309L1.15445 1.14798H1.55832L1.24107 1.48281L1.3637 2.01131L0.968824 1.71439ZM3.21882 1.71439L2.81045 2.01131L2.94826 1.48281L2.58601 1.14798H3.05964L3.21826 0.716309L3.40445 1.14798H3.80832L3.49107 1.48281L3.6137 2.01131L3.21882 1.71439ZM5.06045 2.01131L5.46882 1.71381L5.8637 2.01131L5.74107 1.48281L6.05832 1.14798H5.65445L5.46826 0.716309L5.30964 1.14798H4.83601L5.19826 1.48281L5.06045 2.01131ZM7.71882 1.71381L7.31045 2.01131L7.44826 1.48281L7.08601 1.14798H7.55964L7.71826 0.716309L7.90445 1.14798H8.30832L7.99107 1.48281L8.1137 2.01131L7.71882 1.71381ZM0.560449 4.34522L0.968824 4.04773L1.3637 4.34522L1.24107 3.81673L1.55832 3.48189H1.15445L0.968262 3.05023L0.809637 3.48189H0.335449L0.698262 3.81673L0.560449 4.34522ZM3.21882 4.04773L2.81045 4.34522L2.94826 3.81673L2.58601 3.48189H3.05964L3.21826 3.05023L3.40445 3.48189H3.80832L3.49107 3.81673L3.6137 4.34522L3.21882 4.04773ZM5.06045 4.34522L5.46882 4.04773L5.8637 4.34522L5.74107 3.81673L6.05832 3.48189H5.65445L5.46826 3.05023L5.30964 3.48189H4.83601L5.19826 3.81673L5.06045 4.34522ZM7.71882 4.04773L7.31045 4.34522L7.44826 3.81673L7.08601 3.48189H7.55964L7.71826 3.05023L7.90445 3.48189H8.30832L7.99107 3.81673L8.1137 4.34522L7.71882 4.04773ZM0.560449 6.67856L0.968824 6.38106L1.3637 6.67856L1.24107 6.15006L1.55832 5.81523H1.15445L0.968262 5.38356L0.809637 5.81523H0.335449L0.698262 6.15006L0.560449 6.67856ZM3.21882 6.38106L2.81045 6.67856L2.94826 6.15006L2.58601 5.81523H3.05964L3.21826 5.38356L3.40445 5.81523H3.80832L3.49107 6.15006L3.6137 6.67856L3.21882 6.38106ZM5.06045 6.67856L5.46882 6.38106L5.8637 6.67856L5.74107 6.15006L6.05832 5.81523H5.65445L5.46826 5.38356L5.30964 5.81523H4.83601L5.19826 6.15006L5.06045 6.67856ZM7.71882 6.38106L7.31045 6.67856L7.44826 6.15006L7.08601 5.81523H7.55964L7.71826 5.38356L7.90445 5.81523H8.30832L7.99107 6.15006L8.1137 6.67856L7.71882 6.38106ZM9.56045 2.01189L9.96882 1.71439L10.3637 2.01189L10.2411 1.48339L10.5583 1.14856H10.1544L9.96826 0.716892L9.80964 1.14856H9.33545L9.69826 1.48339L9.56045 2.01189ZM9.96882 4.04773L9.56045 4.34522L9.69826 3.81673L9.33545 3.48189H9.80964L9.96826 3.05023L10.1544 3.48189H10.5583L10.2411 3.81673L10.3637 4.34522L9.96882 4.04773ZM9.56045 6.67856L9.96882 6.38106L10.3637 6.67856L10.2411 6.15006L10.5583 5.81523H10.1544L9.96826 5.38356L9.80964 5.81523H9.33545L9.69826 6.15006L9.56045 6.67856ZM2.09382 2.88048L1.68545 3.17797L1.82326 2.64947L1.46045 2.31464H1.93464L2.09326 1.88298L2.27945 2.31464H2.68332L2.36607 2.64947L2.4887 3.17797L2.09382 2.88048ZM3.93545 3.17797L4.34382 2.88048L4.7387 3.17797L4.61607 2.64947L4.93332 2.31464H4.52945L4.34326 1.88298L4.18464 2.31464H3.71045L4.07326 2.64947L3.93545 3.17797ZM6.59382 2.88048L6.18545 3.17797L6.32326 2.64947L5.96101 2.31464H6.43464L6.59326 1.88298L6.77945 2.31464H7.18332L6.86607 2.64947L6.9887 3.17797L6.59382 2.88048ZM1.68545 5.51131L2.09382 5.21381L2.4887 5.51131L2.36607 4.98281L2.68332 4.64797H2.27945L2.09326 4.21631L1.93464 4.64797H1.46045L1.82326 4.98281L1.68545 5.51131ZM4.34382 5.21381L3.93545 5.51131L4.07326 4.98281L3.71101 4.64797H4.18464L4.34326 4.21631L4.52945 4.64797H4.93332L4.61607 4.98281L4.7387 5.51131L4.34382 5.21381ZM6.18545 5.51131L6.59382 5.21381L6.9887 5.51131L6.86607 4.98281L7.18332 4.64797H6.77945L6.59326 4.21631L6.43464 4.64797H5.96101L6.32326 4.98281L6.18545 5.51131ZM8.84382 2.88048L8.43545 3.17797L8.57326 2.64947L8.21101 2.31464H8.68464L8.84326 1.88298L9.02945 2.31464H9.43332L9.11607 2.64947L9.2387 3.17797L8.84382 2.88048ZM8.43545 5.51131L8.84382 5.21381L9.2387 5.51131L9.11607 4.98281L9.43332 4.64797H9.02945L8.84326 4.21631L8.68464 4.64797H8.21101L8.57326 4.98281L8.43545 5.51131Z" fill="#F7FCFF"/>
</svg>
