<svg viewBox="0 0 30 30" fill="none" xmlns="http://www.w3.org/2000/svg" class="cb-icon cb-icon-usdc pointer-events-none" aria-hidden="true" data-testid="icon-usdc" focusable="false" role="img"><path d="M15 30c8.313 0 15-6.688 15-15 0-8.313-6.688-15-15-15C6.687 0 0 6.687 0 15c0 8.313 6.687 15 15 15Z" fill="#2775CA"></path><path fill-rule="evenodd" clip-rule="evenodd" d="M6.3 11.624c-1.812 4.812.688 10.25 5.563 12 .188.125.375.375.375.562v.875c0 .125 0 .188-.062.25-.063.25-.313.375-.563.25a11.244 11.244 0 0 1-7.312-7.312C2.426 12.31 5.676 5.999 11.613 4.124c.063-.063.188-.063.25-.063.25.063.375.25.375.5v.875c0 .313-.125.5-.375.625C9.301 7 7.238 9 6.301 11.624zm11.626-7.25c.062-.25.312-.375.562-.25a11.335 11.335 0 0 1 7.313 7.375c1.875 5.937-1.375 12.25-7.313 14.125-.062.062-.187.062-.25.062-.25-.062-.375-.25-.375-.5v-.875c0-.312.125-.5.375-.625 2.563-.937 4.625-2.937 5.563-5.562 1.812-4.813-.688-10.25-5.563-12-.187-.125-.375-.375-.375-.625v-.875c0-.125 0-.188.063-.25z" fill="#fff"></path><path d="M19.294 16.985c0-2.187-1.312-2.937-3.937-3.25-1.875-.25-2.25-.75-2.25-1.625s.625-1.437 1.875-1.437c1.125 0 1.75.375 2.062 1.312a.47.47 0 0 0 .438.313h1c.25 0 .437-.188.437-.438v-.062a3.122 3.122 0 0 0-2.812-2.563v-1.5c0-.25-.188-.437-.5-.5h-.938c-.25 0-.437.188-.5.5v1.438c-1.875.25-3.062 1.5-3.062 3.062 0 2.063 1.25 2.875 3.875 3.188 1.75.312 2.312.687 2.312 1.687s-.875 1.688-2.062 1.688c-1.625 0-2.188-.688-2.375-1.625-.063-.25-.25-.375-.438-.375h-1.062a.427.427 0 0 0-.438.437v.063c.25 1.562 1.25 2.687 3.313 3v1.5c0 .25.187.437.5.5h.937c.25 0 .438-.188.5-.5v-1.5c1.875-.313 3.125-1.625 3.125-3.313z" fill="#fff"></path></svg>
