<svg width="240" height="240" viewBox="0 0 240 240" fill="none" xmlns="http://www.w3.org/2000/svg">
<path fill-rule="evenodd" clip-rule="evenodd" d="M142.627 122.828L95.9584 169.497C88.929 176.527 77.532 176.527 70.5026 169.497C63.4731 162.468 63.4731 151.071 70.5026 144.042L49.2894 122.828C30.5442 141.574 30.5442 171.965 49.2894 190.711C68.0345 209.456 98.4264 209.456 117.172 190.711L163.841 144.042L142.627 122.828ZM169.498 95.9583L190.711 117.172C209.456 98.4264 209.456 68.0344 190.711 49.2893C171.966 30.5441 141.574 30.5441 122.828 49.2893L76.1594 95.9583L97.3726 117.172L144.042 70.5025C151.071 63.473 162.468 63.473 169.498 70.5025C176.527 77.5319 176.527 88.9289 169.498 95.9583Z" fill="#F15525"/>
<path fill-rule="evenodd" clip-rule="evenodd" d="M117.172 142.627L70.5025 95.9583C63.4731 88.9289 63.4731 77.5319 70.5025 70.5025C77.532 63.4731 88.9289 63.4731 95.9584 70.5025L117.172 49.2893C98.4264 30.5441 68.0345 30.5441 49.2893 49.2893C30.5442 68.0345 30.5442 98.4264 49.2893 117.172L95.9584 163.841L117.172 142.627ZM144.042 169.497L122.828 190.711C141.574 209.456 171.966 209.456 190.711 190.711C209.456 171.965 209.456 141.574 190.711 122.828L144.042 76.1594L122.828 97.3726L169.497 144.042C176.527 151.071 176.527 162.468 169.497 169.497C162.468 176.527 151.071 176.527 144.042 169.497Z" fill="#F15525"/>
</svg>
