<svg viewBox="0 0 200 200" fill="none" xmlns="http://www.w3.org/2000/svg">
<path d="M130.64 23.3959L145.961 38.7165L130.64 54.0372L115.32 38.7165L130.64 23.3959Z" fill="#F15626"/>
<path d="M145.961 38.7165L161.282 54.0372L145.961 69.3578L130.64 54.0372L145.961 38.7165Z" fill="#F15626"/>
<path d="M161.282 54.0372L176.602 69.3578L161.282 84.6785L145.961 69.3578L161.282 54.0372Z" fill="#F15626"/>
<path d="M115.32 38.7165L130.64 54.0372L115.32 69.3578L99.999 54.0372L115.32 38.7165Z" fill="#F15626"/>
<path d="M145.961 69.3578L161.282 84.6785L145.961 99.9991L130.64 84.6785L145.961 69.3578Z" fill="#F15626"/>
<path d="M99.999 54.0372L115.32 69.3578L99.999 84.6785L84.6783 69.3578L99.999 54.0372Z" fill="#F15626"/>
<path d="M130.64 84.6785L145.961 99.9991L130.64 115.32L115.32 99.9991L130.64 84.6785Z" fill="#F15626"/>
<path d="M69.3577 23.3959L84.6783 38.7165L69.3577 54.0372L54.037 38.7165L69.3577 23.3959Z" fill="#F15626"/>
<path d="M69.3577 84.6785L84.6783 99.9991L69.3577 115.32L54.037 99.9991L69.3577 84.6785Z" fill="#F15626"/>
<path d="M84.6783 38.7165L99.999 54.0372L84.6783 69.3578L69.3577 54.0372L84.6783 38.7165Z" fill="#F15626"/>
<path d="M145.961 99.9991L161.282 115.32L145.961 130.64L130.64 115.32L145.961 99.9991Z" fill="#F15626"/>
<path d="M99.999 115.32L115.32 130.64L99.999 145.961L84.6783 130.64L99.999 115.32Z" fill="#F15626"/>
<path d="M161.282 115.32L176.602 130.64L161.282 145.961L145.961 130.64L161.282 115.32Z" fill="#F15626"/>
<path d="M54.037 38.7165L69.3577 54.0372L54.037 69.3578L38.7164 54.0372L54.037 38.7165Z" fill="#F15626"/>
<path d="M54.037 99.9991L69.3577 115.32L54.037 130.64L38.7164 115.32L54.037 99.9991Z" fill="#F15626"/>
<path d="M115.32 99.9991L130.64 115.32L115.32 130.64L99.999 115.32L115.32 99.9991Z" fill="#F15626"/>
<path d="M84.6783 69.3578L99.999 84.6785L84.6783 99.9991L69.3577 84.6785L84.6783 69.3578Z" fill="#F15626"/>
<path d="M84.6783 130.64L99.999 145.961L84.6783 161.282L69.3577 145.961L84.6783 130.64Z" fill="#F15626"/>
<path d="M145.961 130.64L161.282 145.961L145.961 161.282L130.64 145.961L145.961 130.64Z" fill="#F15626"/>
<path d="M38.7164 54.0372L54.037 69.3578L38.7164 84.6785L23.3958 69.3578L38.7164 54.0372Z" fill="#F15626"/>
<path d="M38.7164 115.32L54.037 130.64L38.7164 145.961L23.3958 130.64L38.7164 115.32Z" fill="#F15626"/>
<path d="M54.037 69.3578L69.3577 84.6785L54.037 99.9991L38.7164 84.6785L54.037 69.3578Z" fill="#F15626"/>
<path d="M54.037 130.64L69.3577 145.961L54.037 161.282L38.7164 145.961L54.037 130.64Z" fill="#F15626"/>
<path d="M115.32 130.64L130.64 145.961L115.32 161.282L99.999 145.961L115.32 130.64Z" fill="#F15626"/>
<path d="M69.3577 145.961L84.6783 161.282L69.3577 176.602L54.037 161.282L69.3577 145.961Z" fill="#F15626"/>
<path d="M130.64 145.961L145.961 161.282L130.64 176.602L115.32 161.282L130.64 145.961Z" fill="#F15626"/>
</svg>
