<svg width="37" height="37" viewBox="0 0 37 37" fill="none" xmlns="http://www.w3.org/2000/svg">
<g id="Frame">
<path id="Vector" d="M18.7895 29.254C15.9202 29.254 13.5859 26.9189 13.5859 24.05C13.5859 21.1802 15.9202 18.8459 18.7895 18.8459C21.6589 18.8459 23.9936 21.1802 23.9936 24.05C23.9936 26.9193 21.6589 29.254 18.7895 29.254Z" fill="#2C98FF"/>
<path id="Vector_2" d="M18.79 18.4995C15.7245 18.4995 13.2391 20.985 13.2391 24.0505C13.2391 27.1159 15.7245 29.6009 18.79 29.6009C21.8554 29.6009 24.3404 27.1159 24.3404 24.0505C24.3404 20.985 21.8554 18.4995 18.79 18.4995ZM18.79 28.9067C16.1116 28.9067 13.9328 26.7279 13.9328 24.05C13.9328 21.3717 16.1116 19.1928 18.79 19.1928C21.4679 19.1928 23.6467 21.3717 23.6467 24.05C23.6467 26.7283 21.4679 28.9067 18.79 28.9067Z" fill="#80C1FF"/>
<path id="Vector_3" d="M18.79 27.0562C20.4503 27.0562 21.7962 25.7103 21.7962 24.05C21.7962 22.3897 20.4503 21.0437 18.79 21.0437C17.1297 21.0437 15.7837 22.3897 15.7837 24.05C15.7837 25.7103 17.1297 27.0562 18.79 27.0562Z" fill="#2C98FF"/>
<path id="Vector_4" d="M18.7895 20.6969C16.9405 20.6969 15.4364 22.2009 15.4364 24.05C15.4364 25.8991 16.9405 27.4031 18.7895 27.4031C20.6386 27.4031 22.1427 25.8991 22.1427 24.05C22.1427 22.2009 20.6386 20.6969 18.7895 20.6969ZM18.7895 26.7094C18.0845 26.7085 17.4086 26.4281 16.91 25.9295C16.4115 25.431 16.131 24.755 16.1302 24.05C16.1308 23.3449 16.4111 22.6688 16.9097 22.1702C17.4083 21.6716 18.0844 21.3912 18.7895 21.3906C19.4946 21.3912 20.1707 21.6716 20.6693 22.1702C21.1679 22.6688 21.4483 23.3449 21.4489 24.05C21.4489 25.5161 20.2561 26.7094 18.7895 26.7094Z" fill="#80C1FF"/>
<path id="Vector_5" d="M11.9999 7.00012V13.9376L18.9374 18.1001L25.8749 13.9376V7.00012H11.9999Z" fill="#2C98FF"/>
<g id="Group">
<path id="Vector_6" d="M14.2205 25.2997C15.8489 25.2997 17.1689 23.9796 17.1689 22.3512C17.1689 20.7229 15.8489 19.4028 14.2205 19.4028C12.5921 19.4028 11.272 20.7229 11.272 22.3512C11.272 23.9796 12.5921 25.2997 14.2205 25.2997Z" fill="#FFA41B"/>
<path id="Vector_7" d="M22.9719 24.667C22.9721 24.991 22.9085 25.3118 22.7847 25.6112C22.6608 25.9106 22.4791 26.1826 22.2501 26.4118C22.021 26.6409 21.749 26.8226 21.4496 26.9465C21.1502 27.0704 20.8294 27.1341 20.5054 27.1339C20.8294 27.1338 21.1502 27.1974 21.4495 27.3213C21.7488 27.4452 22.0208 27.6269 22.2499 27.856C22.479 28.085 22.6606 28.357 22.7845 28.6564C22.9084 28.9557 22.9721 29.2765 22.9719 29.6005C22.9717 29.2765 23.0354 28.9556 23.1593 28.6562C23.2832 28.3569 23.465 28.0849 23.6941 27.8558C23.9232 27.6267 24.1952 27.4451 24.4946 27.3212C24.794 27.1973 25.1149 27.1337 25.4389 27.1339C25.1148 27.1342 24.7939 27.0705 24.4945 26.9467C24.1951 26.8228 23.9231 26.6411 23.6939 26.4119C23.4648 26.1828 23.2831 25.9107 23.1592 25.6113C23.0353 25.3119 22.9717 24.991 22.9719 24.667ZM21.2801 21.0437C21.28 20.8432 21.3195 20.6447 21.3962 20.4594C21.4729 20.2742 21.5853 20.1058 21.7271 19.9641C21.8689 19.8223 22.0372 19.7098 22.2225 19.6331C22.4077 19.5564 22.6063 19.517 22.8068 19.517C22.6063 19.5172 22.4078 19.4778 22.2226 19.4012C22.0374 19.3245 21.8691 19.2122 21.7273 19.0705C21.5855 18.9288 21.473 18.7605 21.3963 18.5754C21.3196 18.3902 21.2801 18.1917 21.2801 17.9912C21.2801 18.1917 21.2407 18.3901 21.164 18.5753C21.0873 18.7605 20.9749 18.9287 20.8332 19.0704C20.6914 19.2121 20.5231 19.3245 20.3379 19.4011C20.1527 19.4778 19.9543 19.5172 19.7538 19.517C19.9543 19.517 20.1528 19.5565 20.338 19.6333C20.5232 19.71 20.6915 19.8225 20.8332 19.9642C20.9749 20.106 21.0874 20.2743 21.164 20.4595C21.2407 20.6448 21.2801 20.8433 21.2801 21.0437Z" fill="#FFA41B"/>
</g>
</g>
</svg>
